<svg width="25" height="26" viewBox="0 0 25 26" fill="none" xmlns="http://www.w3.org/2000/svg">
<path d="M17.1367 15.8171C17.653 17.0772 18.1282 18.0854 18.5612 19.1522C18.6528 19.3957 18.8029 19.6814 18.8945 19.925C19.0693 20.3618 19.0427 20.8315 18.6306 21.1575C18.2186 21.4834 17.7827 21.3479 17.4229 21.0448C16.3434 20.1354 15.2556 19.1757 14.1761 18.2663C13.9335 18.0475 13.6991 17.879 13.2889 17.5841C13.1597 18.6911 13.0058 19.6471 12.8519 20.603C12.7236 21.3996 12.6539 22.2384 12.4167 23.0011C12.3654 23.3198 12.0119 23.6879 11.7683 23.7794C11.273 23.9121 11.0477 23.4836 10.9315 23.0889C10.6495 21.9974 10.4097 20.8473 10.1278 19.7558C9.96212 19.0589 9.79644 18.3621 9.54745 17.472C9.07677 17.7559 8.7407 17.9142 8.41287 18.123C7.42115 18.6989 6.43766 19.3251 5.4963 19.8928C5.16847 20.1015 4.8324 20.2599 4.4881 20.3679C3.95058 20.5592 3.34623 20.6581 2.90308 20.1617C2.52677 19.7579 2.57902 19.1288 3.09277 18.476C3.95176 17.4047 4.82723 16.4342 5.74482 15.405C6.00581 15.1038 6.26681 14.8026 6.56993 14.4427C5.42994 14.1121 4.28995 13.7814 3.25069 13.4343C2.16106 13.0954 1.77651 12.6412 1.87912 12.0039C1.98173 11.3666 2.4863 10.9738 3.5604 10.9016C4.73522 10.8128 5.91827 10.7745 7.09309 10.6858C7.60496 10.6538 8.10035 10.521 8.75507 10.4139C8.53079 9.67498 8.43195 9.07063 8.23238 8.48275C7.86619 7.50844 7.45787 6.59273 7.09169 5.61842C6.98367 5.27411 6.87564 4.92981 6.81799 4.57727C6.78598 4.0654 6.9133 3.57919 7.44258 3.3375C7.9215 3.10404 8.35735 3.2396 8.67506 3.60132C9.587 4.43466 10.3479 5.29271 11.1508 6.09216C11.4685 6.45388 11.7863 6.8156 12.3475 7.08577C12.3678 5.94484 12.3459 4.86251 12.3661 3.72158C12.3927 3.25184 12.3607 2.73997 12.4377 2.262C12.5321 1.57433 12.8855 1.20626 13.3974 1.17426C13.9679 1.18438 14.2856 1.54609 14.4687 2.03325C14.8257 3.26761 15.1241 4.45985 15.4307 5.70244C15.5305 5.99638 15.5882 6.34892 15.6623 6.80219C16.0405 6.58521 16.318 6.3847 16.5954 6.18419C17.285 5.65773 17.9745 5.13127 18.6723 4.65518C19.5047 4.05365 20.0083 3.97128 20.4433 4.41725C20.8196 4.8211 20.8012 5.3412 20.27 6.20372C19.781 7.00765 19.292 7.81157 18.8029 8.61549C18.432 9.19325 18.1197 9.81314 17.7149 10.4999C17.9576 10.7187 18.2002 10.9376 18.485 11.0979C19.7906 12.1254 21.1467 13.1446 22.4523 14.1721C22.8708 14.5174 23.1381 14.8873 22.9183 15.4404C22.6985 15.9934 22.2452 16.0675 21.7251 16.0492C20.2656 15.9776 18.806 15.9061 17.1367 15.8171Z" fill="white"/>
</svg>
