<svg width="165" height="19" viewBox="0 0 165 19" fill="none" xmlns="http://www.w3.org/2000/svg">
<path d="M12.672 1.2V4.176H8.04V18H4.896V4.176H0.312V1.2H12.672ZM27.3289 18H23.9929L22.7449 14.616H16.0969L14.8489 18H11.4889L17.7289 1.2H21.0889L27.3289 18ZM19.4329 5.688L17.2009 11.64H21.6409L19.4329 5.688ZM38.8196 11.76V1.2H41.9636V18H39.2996L31.9796 6.624V18H28.8596V1.2H31.9796V1.224L32.0036 1.2L38.8196 11.76ZM51.4155 13.56L55.7115 1.2H59.0235L53.1915 18H49.6635L43.8315 1.2H47.1435L51.4155 13.56ZM60.7112 18V1.2H63.8312V18H60.7112ZM76.2609 18L72.9729 12.192H69.8529V18H66.7329V1.2H73.5249C74.5169 1.2 75.4369 1.448 76.2849 1.944C77.1329 2.424 77.7969 3.088 78.2769 3.936C78.7729 4.784 79.0209 5.704 79.0209 6.696C79.0209 7.72 78.7649 8.656 78.2529 9.504C77.7409 10.352 77.0529 11.016 76.1889 11.496L79.8609 18H76.2609ZM69.8529 4.176V9.192H73.5249C74.2129 9.192 74.8049 8.952 75.3009 8.472C75.7969 7.976 76.0449 7.384 76.0449 6.696C76.0449 5.992 75.7969 5.4 75.3009 4.92C74.8209 4.424 74.2289 4.176 73.5249 4.176H69.8529ZM99.4035 7.92V1.2H102.548V18H99.4035V10.872H91.6515V18H88.5315V1.2H91.6515V7.92H99.4035ZM119.884 18H116.548L115.3 14.616H108.652L107.404 18H104.044L110.284 1.2H113.644L119.884 18ZM111.988 5.688L109.756 11.64H114.196L111.988 5.688ZM127.54 18.312C125.732 18.312 124.212 17.944 122.98 17.208C121.748 16.472 120.884 15.48 120.388 14.232L123.412 12.672C124.116 14.384 125.516 15.24 127.612 15.24C128.252 15.24 128.812 15.136 129.292 14.928C129.788 14.72 130.164 14.464 130.42 14.16C130.676 13.84 130.804 13.512 130.804 13.176C130.804 12.776 130.66 12.448 130.372 12.192C130.084 11.92 129.668 11.688 129.124 11.496C128.596 11.304 127.796 11.064 126.724 10.776C125.588 10.456 124.628 10.112 123.844 9.744C123.06 9.36 122.412 8.848 121.9 8.208C121.404 7.568 121.156 6.76 121.156 5.784C121.156 4.792 121.428 3.928 121.972 3.192C122.516 2.44 123.244 1.872 124.156 1.488C125.068 1.088 126.06 0.887999 127.132 0.887999C128.604 0.887999 129.892 1.216 130.996 1.872C132.116 2.512 132.972 3.416 133.564 4.584L130.492 6.12C129.82 4.696 128.7 3.984 127.132 3.984C126.332 3.984 125.676 4.168 125.164 4.536C124.668 4.904 124.42 5.336 124.42 5.832C124.42 6.248 124.54 6.576 124.78 6.816C125.02 7.04 125.348 7.232 125.764 7.392C126.196 7.536 126.98 7.768 128.116 8.088C129.364 8.44 130.396 8.808 131.212 9.192C132.028 9.56 132.708 10.08 133.252 10.752C133.812 11.408 134.092 12.248 134.092 13.272C134.092 14.28 133.804 15.168 133.228 15.936C132.668 16.688 131.884 17.272 130.876 17.688C129.884 18.104 128.772 18.312 127.54 18.312ZM150.305 18H146.969L145.721 14.616H139.073L137.825 18H134.465L140.705 1.2H144.065L150.305 18ZM142.409 5.688L140.177 11.64H144.617L142.409 5.688ZM161.796 11.76V1.2H164.94V18H162.276L154.956 6.624V18H151.836V1.2H154.956V1.224L154.98 1.2L161.796 11.76Z" fill="url(#paint0_linear_88_13)"/>
<defs>
<linearGradient id="paint0_linear_88_13" x1="94" y1="22" x2="45.5" y2="-23.5" gradientUnits="userSpaceOnUse">
<stop/>
<stop offset="0.786458"/>
<stop offset="0.822917" stop-color="#C5C5C5"/>
<stop offset="1"/>
</linearGradient>
</defs>
</svg>
