<svg width="31" height="37" viewBox="0 0 31 37" fill="none" xmlns="http://www.w3.org/2000/svg">
<path d="M24.9988 19.4912C24.0899 19.7254 23.1742 19.918 22.2931 20.1904C20.9854 20.618 20.0738 21.4934 19.6423 22.803C19.3558 23.683 19.1146 24.5769 18.9431 25.5022C18.4755 27.9071 18.3605 30.3611 18.1094 32.7733C18.0766 33.0991 18.1135 33.4562 18.1017 33.7785C18.1011 33.9068 18.104 34.0558 18.0581 34.1702C17.9624 34.5062 17.7171 34.7173 17.3958 34.7271C17.0745 34.737 16.7821 34.5285 16.7032 34.1783C16.6516 33.9945 16.6176 33.7864 16.6255 33.5715C16.6219 32.7604 16.454 31.9975 16.2442 31.2414C15.8279 29.7502 15.3488 28.2692 14.6282 26.8918C13.7376 25.2646 12.5666 23.8968 10.9259 22.9477C10.0934 22.4645 9.24329 22.0055 8.38979 21.5257C7.08687 20.799 5.6673 20.4118 4.216 20.094C3.99273 20.045 3.73773 20.0654 3.47252 20.0234C3.29799 20.0092 3.10249 19.9985 2.92114 19.9427C2.53749 19.8346 2.33285 19.5049 2.35884 19.1376C2.38823 18.791 2.66867 18.5315 3.05286 18.5113C3.32882 18.4875 3.63256 18.5019 3.91873 18.5405C5.5485 18.7651 7.12488 18.4003 8.69445 17.9939C9.27468 17.8563 9.85151 17.6978 10.3972 17.4803C11.6669 16.9521 12.5751 16.0558 12.9822 14.7289C13.3078 13.693 13.4799 12.6395 13.5369 11.5407C13.6453 9.83545 13.9039 8.12694 13.8378 6.40749C13.803 5.53737 13.7892 4.66381 13.7511 3.77288C13.7555 3.53717 13.7391 3.30489 13.7645 3.06575C13.8528 2.81632 14.0109 2.5982 14.28 2.5328C14.5492 2.46739 14.8246 2.57185 14.9561 2.84938C15.112 3.14429 15.2504 3.46343 15.3258 3.79287C15.6826 5.31523 16.0394 6.83758 16.3995 8.38074C16.7359 9.77827 17.0303 11.1827 17.4051 12.5525C17.7182 13.6762 18.2936 14.6928 19.1035 15.5642C19.8369 16.3628 20.7465 16.7907 21.7756 17.0281C22.4455 17.1748 23.0977 17.3458 23.7608 17.4509C24.1166 17.5208 24.5008 17.5007 24.8709 17.5256C25.59 17.5788 26.3266 17.6078 27.0492 17.6818C27.3773 17.7135 27.6244 17.9081 27.6998 18.2375C27.7928 18.5427 27.6552 18.8856 27.3402 19.0654C27.1232 19.1863 26.8818 19.2899 26.6302 19.3311C26.0885 19.4411 25.519 19.5129 24.9739 19.6021C25.009 19.5537 25.0022 19.512 24.9988 19.4912Z" fill="white"/>
</svg>
