<svg width="14" height="17" viewBox="0 0 14 17" fill="none" xmlns="http://www.w3.org/2000/svg">
<path d="M10.4697 15.3683C7.97191 15.5787 5.4825 15.8512 2.98473 16.0617C1.10722 16.1885 0.336427 15.1557 0.916965 13.3723C1.82645 10.2814 2.67391 7.19893 3.59176 4.1701C3.75623 3.51639 3.98274 2.85431 4.27126 2.18388C4.95564 0.702219 6.36552 0.385817 7.58722 1.48417C8.16706 2.03753 8.69324 2.66127 9.10372 3.36377C10.1777 5.23989 11.1276 7.13273 12.0858 9.0876C12.6002 10.0919 13.0441 11.0425 13.5584 12.0467C14.3592 13.7702 13.7654 14.987 11.8593 15.3704C11.4252 15.4289 10.991 15.4874 10.4948 15.5543C10.478 15.4303 10.478 15.4303 10.4697 15.3683Z" fill="white"/>
</svg>
